<?xml version="1.0" encoding="UTF-8"?>
<svg id="Layer_2" data-name="Layer 2" xmlns="http://www.w3.org/2000/svg" viewBox="0 0 549.11 358.18">
  <defs>
    <style>
      .cls-1 {
        font-family: SourceSerifVariable-Roman, 'Source Serif Variable';
        font-size: 36px;
        font-variation-settings: 'wght' 389;
      }

      .cls-1, .cls-2 {
        fill: #fff;
      }

      .cls-2 {
        stroke-width: 0px;
      }
    </style>
  </defs>
  <g id="Layer_1-2" data-name="Layer 1">
    <g>
      <polygon class="cls-2" points="23.52 24.64 23.52 269.19 107.96 269.19 107.96 165.08 23.52 24.64"/>
      <polygon class="cls-2" points="23.99 0 183.69 269.25 248.41 157.83 248.41 22.19 191.63 119.68 119.35 0 23.99 0"/>
      <rect class="cls-2" x="261.54" y="0" width="89.72" height="269.24"/>
      <polygon class="cls-2" points="363.37 0 363.37 43.08 447.19 43.38 432.07 0 363.37 0"/>
      <polygon class="cls-2" points="363.37 107.16 363.37 153.23 485.44 153.23 469.3 107.16 363.37 107.16"/>
      <polygon class="cls-2" points="363.37 218.12 363.37 269.25 525.59 269.38 507.96 218.12 363.37 218.12"/>
    </g>
    <text class="cls-1" transform="translate(0 346.12)"><tspan x="0" y="0" xml:space="preserve">M A S A R A T   E V E N T S</tspan></text>
  </g>
</svg>